<?xml version="1.0" encoding="UTF-8" standalone="no"?>
<!DOCTYPE svg PUBLIC "-//W3C//DTD SVG 1.1//EN" "http://www.w3.org/Graphics/SVG/1.1/DTD/svg11.dtd">
<svg width="100%" height="100%" viewBox="0 0 366 465" version="1.1" xmlns="http://www.w3.org/2000/svg" xmlns:xlink="http://www.w3.org/1999/xlink" xml:space="preserve" xmlns:serif="http://www.serif.com/" style="fill-rule:evenodd;clip-rule:evenodd;stroke-linejoin:round;stroke-miterlimit:2;">
    <g id="Favicon-Curves" transform="matrix(-1,0,0,1,2102.5,-1472.2)">
        <g id="Logo-Icon-Silhouette-Curves" transform="matrix(1,0,0,1,352.522,628.794)">
            <path d="M1384.98,1125.91C1384.98,1125.91 1384.98,978.465 1384.98,918.411C1384.98,875.256 1416.82,843.411 1459.98,843.411L1459.98,843.411C1502.83,843.411 1534.98,875.559 1534.98,918.411C1534.98,956.922 1528.97,943.411 1567.48,943.411C1672.35,943.411 1749.98,1021.04 1749.98,1125.91C1749.98,1230.78 1672.35,1308.41 1567.48,1308.41C1462.61,1308.41 1384.98,1230.78 1384.98,1125.91Z" style="fill:rgb(18,18,18);"/>
        </g>
        <g id="Logo-Icon-Curves" transform="matrix(1,0,0,1,352.522,628.794)">
            <path d="M1434.98,1125.91L1434.98,918.411C1434.98,904.604 1446.17,893.411 1459.98,893.411L1459.98,893.411C1473.79,893.411 1484.98,904.604 1484.98,918.411L1484.98,1022.25C1507.62,1004.21 1536.3,993.411 1567.48,993.411C1640.61,993.411 1699.98,1052.78 1699.98,1125.91C1699.98,1199.04 1640.61,1258.41 1567.48,1258.41C1494.35,1258.41 1434.98,1199.04 1434.98,1125.91ZM1567.48,1043.41C1613.01,1043.41 1649.98,1080.38 1649.98,1125.91C1649.98,1171.44 1613.01,1208.41 1567.48,1208.41C1521.94,1208.41 1484.98,1171.44 1484.98,1125.91C1484.98,1080.38 1521.94,1043.41 1567.48,1043.41Z" style="fill:rgb(2,149,243);"/>
        </g>
    </g>
</svg>
