<svg width="365" height="465" viewBox="0 0 365 465" fill="none" xmlns="http://www.w3.org/2000/svg">
<path fill-rule="evenodd" clip-rule="evenodd" d="M364.998 282.504C364.998 282.504 364.998 135.059 364.998 75.0051C364.998 31.8501 333.158 0.00512695 289.998 0.00512695C247.148 0.00512695 214.998 32.1531 214.998 75.0051C214.998 113.516 221.008 100.005 182.498 100.005C77.628 100.005 -0.00195312 177.634 -0.00195312 282.504C-0.00195312 387.374 77.628 465.004 182.498 465.004C287.368 465.004 364.998 387.374 364.998 282.504Z" fill="black"/>
<path fill-rule="evenodd" clip-rule="evenodd" d="M314.998 282.504V75.0051C314.998 61.1981 303.808 50.0051 289.998 50.0051C276.188 50.0051 264.998 61.1981 264.998 75.0051V178.844C242.358 160.804 213.678 150.005 182.498 150.005C109.368 150.005 49.998 209.374 49.998 282.504C49.998 355.634 109.368 415.004 182.498 415.004C255.628 415.004 314.998 355.634 314.998 282.504ZM182.498 200.004C136.968 200.004 99.998 236.974 99.998 282.504C99.998 328.034 136.968 365.004 182.498 365.004C228.038 365.004 264.998 328.034 264.998 282.504C264.998 236.974 228.038 200.004 182.498 200.004Z" fill="#0295F3"/>
</svg>
