<?xml version="1.0" encoding="UTF-8" standalone="no"?>
<!DOCTYPE svg PUBLIC "-//W3C//DTD SVG 1.1//EN" "http://www.w3.org/Graphics/SVG/1.1/DTD/svg11.dtd">
<svg width="100%" height="100%" viewBox="0 0 535 684" version="1.1" xmlns="http://www.w3.org/2000/svg" xmlns:xlink="http://www.w3.org/1999/xlink" xml:space="preserve" xmlns:serif="http://www.serif.com/" style="fill-rule:evenodd;clip-rule:evenodd;stroke-linejoin:round;stroke-miterlimit:2;">
    <g id="Triangle" transform="matrix(4.26664e-18,-0.0696795,0.054514,3.33802e-18,-443.089,2403.18)">
        <path d="M29582,8128L34489,17942L24675,17942L29582,8128ZM29582,9547.33L33397.2,17177.7C33397.2,17177.7 25766.8,17177.7 25766.8,17177.7C25766.8,17177.7 29582,9547.33 29582,9547.33Z" style="fill:rgb(1,149,243);"/>
    </g>
    <g id="Letter" transform="matrix(15.6146,0,0,15.6146,91.5091,213.963)">
        <path d="M2.491,-4.987L11.599,-4.987C13.653,-4.987 15.218,-4.829 16.296,-4.515C17.743,-4.089 18.983,-3.331 20.016,-2.243C21.048,-1.154 21.834,0.179 22.373,1.756C22.911,3.332 23.181,5.277 23.181,7.589C23.181,9.62 22.928,11.371 22.423,12.841C21.806,14.637 20.925,16.09 19.78,17.201C18.916,18.043 17.749,18.699 16.279,19.171C15.179,19.519 13.709,19.692 11.868,19.692L2.491,19.692L2.491,-4.987ZM7.474,-0.812L7.474,15.534L11.195,15.534C12.586,15.534 13.591,15.456 14.208,15.299C15.016,15.097 15.687,14.754 16.22,14.272C16.753,13.789 17.188,12.995 17.524,11.89C17.861,10.784 18.03,9.278 18.03,7.37C18.03,5.462 17.861,3.997 17.524,2.976C17.188,1.955 16.716,1.158 16.11,0.586C15.504,0.013 14.736,-0.374 13.804,-0.576C13.108,-0.733 11.745,-0.812 9.713,-0.812L7.474,-0.812Z" style="fill:white;fill-rule:nonzero;"/>
    </g>
</svg>
